<svg id="visual" viewBox="0 0 900 600" width="900" height="600" xmlns="http://www.w3.org/2000/svg" xmlns:xlink="http://www.w3.org/1999/xlink" version="1.1"><rect x="0" y="0" width="900" height="600" fill="#001220"></rect><path d="M0 364L16.7 376.7C33.3 389.3 66.7 414.7 100 408.7C133.3 402.7 166.7 365.3 200 345.3C233.3 325.3 266.7 322.7 300 338.7C333.3 354.7 366.7 389.3 400 407.2C433.3 425 466.7 426 500 421.2C533.3 416.3 566.7 405.7 600 405C633.3 404.3 666.7 413.7 700 421C733.3 428.3 766.7 433.7 800 416.5C833.3 399.3 866.7 359.7 883.3 339.8L900 320L900 601L883.3 601C866.7 601 833.3 601 800 601C766.7 601 733.3 601 700 601C666.7 601 633.3 601 600 601C566.7 601 533.3 601 500 601C466.7 601 433.3 601 400 601C366.7 601 333.3 601 300 601C266.7 601 233.3 601 200 601C166.7 601 133.3 601 100 601C66.7 601 33.3 601 16.7 601L0 601Z" fill="#c62368"></path><path d="M0 435L16.7 429.8C33.3 424.7 66.7 414.3 100 411C133.3 407.7 166.7 411.3 200 406.8C233.3 402.3 266.7 389.7 300 382.2C333.3 374.7 366.7 372.3 400 384C433.3 395.7 466.7 421.3 500 428.3C533.3 435.3 566.7 423.7 600 413.2C633.3 402.7 666.7 393.3 700 387C733.3 380.7 766.7 377.3 800 382C833.3 386.7 866.7 399.3 883.3 405.7L900 412L900 601L883.3 601C866.7 601 833.3 601 800 601C766.7 601 733.3 601 700 601C666.7 601 633.3 601 600 601C566.7 601 533.3 601 500 601C466.7 601 433.3 601 400 601C366.7 601 333.3 601 300 601C266.7 601 233.3 601 200 601C166.7 601 133.3 601 100 601C66.7 601 33.3 601 16.7 601L0 601Z" fill="#d53867"></path><path d="M0 443L16.7 447.3C33.3 451.7 66.7 460.3 100 460C133.3 459.7 166.7 450.3 200 455.2C233.3 460 266.7 479 300 477.3C333.3 475.7 366.7 453.3 400 443.5C433.3 433.7 466.7 436.3 500 446.5C533.3 456.7 566.7 474.3 600 473.8C633.3 473.3 666.7 454.7 700 451C733.3 447.3 766.7 458.7 800 469.3C833.3 480 866.7 490 883.3 495L900 500L900 601L883.3 601C866.7 601 833.3 601 800 601C766.7 601 733.3 601 700 601C666.7 601 633.3 601 600 601C566.7 601 533.3 601 500 601C466.7 601 433.3 601 400 601C366.7 601 333.3 601 300 601C266.7 601 233.3 601 200 601C166.7 601 133.3 601 100 601C66.7 601 33.3 601 16.7 601L0 601Z" fill="#e34c67"></path><path d="M0 475L16.7 473.2C33.3 471.3 66.7 467.7 100 469.8C133.3 472 166.7 480 200 484.5C233.3 489 266.7 490 300 499.3C333.3 508.7 366.7 526.3 400 534.3C433.3 542.3 466.7 540.7 500 532.3C533.3 524 566.7 509 600 510.7C633.3 512.3 666.7 530.7 700 527.2C733.3 523.7 766.7 498.3 800 486.8C833.3 475.3 866.7 477.7 883.3 478.8L900 480L900 601L883.3 601C866.7 601 833.3 601 800 601C766.7 601 733.3 601 700 601C666.7 601 633.3 601 600 601C566.7 601 533.3 601 500 601C466.7 601 433.3 601 400 601C366.7 601 333.3 601 300 601C266.7 601 233.3 601 200 601C166.7 601 133.3 601 100 601C66.7 601 33.3 601 16.7 601L0 601Z" fill="#ef5f67"></path><path d="M0 547L16.7 546.8C33.3 546.7 66.7 546.3 100 552.8C133.3 559.3 166.7 572.7 200 566.7C233.3 560.7 266.7 535.3 300 523.7C333.3 512 366.7 514 400 523.3C433.3 532.7 466.7 549.3 500 550.8C533.3 552.3 566.7 538.7 600 533.8C633.3 529 666.7 533 700 540.8C733.3 548.7 766.7 560.3 800 568.2C833.3 576 866.7 580 883.3 582L900 584L900 601L883.3 601C866.7 601 833.3 601 800 601C766.7 601 733.3 601 700 601C666.7 601 633.3 601 600 601C566.7 601 533.3 601 500 601C466.7 601 433.3 601 400 601C366.7 601 333.3 601 300 601C266.7 601 233.3 601 200 601C166.7 601 133.3 601 100 601C66.7 601 33.3 601 16.7 601L0 601Z" fill="#fa7268"></path></svg>